<svg width="209" height="57" viewBox="0 0 209 57" fill="none" xmlns="http://www.w3.org/2000/svg">
<g clip-path="url(#clip0_126_1852)">
<path d="M51.4999 15.8857H50.5206C50.3951 15.8857 50.2946 15.8605 50.2067 15.8229C50.1189 15.7852 50.0435 15.7099 49.9682 15.5968L44.9463 9.24257C44.8835 9.16722 44.8207 9.09187 44.7579 9.02909C44.6952 8.9663 44.6198 8.92862 44.5445 8.89095C44.4692 8.85328 44.3687 8.82816 44.2683 8.8156C44.1553 8.80304 44.0298 8.79049 43.8791 8.79049H41.8327V15.8731H40.6902V0.226044H44.6952C46.4905 0.226044 47.8464 0.577663 48.7378 1.26834C49.6292 1.95902 50.0812 2.98877 50.0812 4.34501C50.0812 4.94779 49.9807 5.48778 49.7673 5.97753C49.5664 6.46729 49.2651 6.90681 48.8759 7.28355C48.4867 7.66028 48.0222 7.96167 47.4698 8.20027C46.9174 8.43887 46.3022 8.58956 45.6117 8.67747C45.7874 8.79049 45.9507 8.94118 46.0888 9.11699L51.4748 15.8857H51.4999ZM44.5571 7.96167C45.2476 7.96167 45.8753 7.87376 46.4277 7.71051C46.9801 7.54726 47.4447 7.30866 47.8213 6.99472C48.198 6.68077 48.4867 6.31659 48.6876 5.87707C48.8885 5.43754 48.9889 4.94779 48.9889 4.4078C48.9889 3.29015 48.6248 2.46134 47.8967 1.93391C47.1685 1.39392 46.1139 1.13021 44.7203 1.13021H41.8578V7.97423H44.5696L44.5571 7.96167Z" fill="#292C3D"/>
<path d="M72.3911 8.04957C72.3911 9.25512 72.2153 10.3602 71.8512 11.3397C71.4871 12.3192 70.9849 13.1606 70.3195 13.8638C69.6541 14.5671 68.8757 15.0945 67.9592 15.4838C67.0427 15.8605 66.0258 16.0489 64.9209 16.0489C63.8161 16.0489 62.7992 15.8605 61.8952 15.4838C60.9913 15.1071 60.2003 14.5671 59.5349 13.8638C58.8695 13.1606 58.3673 12.3318 58.0032 11.3397C57.6391 10.3602 57.4634 9.25512 57.4634 8.04957C57.4634 6.84402 57.6391 5.75149 58.0032 4.77198C58.3673 3.79247 58.8695 2.95109 59.5349 2.24785C60.2003 1.54461 60.9787 1.00463 61.8952 0.627892C62.8117 0.251157 63.8161 0.0502319 64.9209 0.0502319C66.0258 0.0502319 67.0427 0.238599 67.9592 0.615334C68.8757 0.992069 69.6667 1.53206 70.3195 2.23529C70.9724 2.93853 71.4871 3.77991 71.8512 4.75942C72.2153 5.73893 72.3911 6.84402 72.3911 8.03701V8.04957ZM71.2109 8.04957C71.2109 6.95704 71.0602 5.97753 70.7589 5.11104C70.4576 4.24455 70.0307 3.50364 69.4783 2.90086C68.9259 2.29808 68.2605 1.83344 67.4821 1.50694C66.7037 1.18044 65.85 1.02974 64.9209 1.02974C63.9919 1.02974 63.1382 1.19299 62.3598 1.50694C61.5814 1.83344 60.916 2.28553 60.3635 2.90086C59.8111 3.50364 59.3717 4.24455 59.0704 5.11104C58.7691 5.97753 58.6059 6.95704 58.6059 8.04957C58.6059 9.1421 58.7565 10.1342 59.0704 11.0007C59.3717 11.8672 59.8111 12.6081 60.3635 13.2108C60.916 13.8136 61.5814 14.2783 62.3598 14.5922C63.1382 14.9061 63.9919 15.0694 64.9209 15.0694C65.85 15.0694 66.7163 14.9061 67.4821 14.5922C68.2605 14.2783 68.9259 13.8136 69.4783 13.2108C70.0307 12.6081 70.4576 11.8672 70.7589 11.0007C71.0602 10.1342 71.2109 9.15466 71.2109 8.04957Z" fill="#292C3D"/>
<path d="M88.0218 2.13482C87.9591 2.2604 87.8586 2.32318 87.7331 2.32318C87.6326 2.32318 87.5196 2.2604 87.3564 2.12226C87.2058 1.98412 87.0049 1.83343 86.7412 1.67018C86.4776 1.50693 86.1637 1.35623 85.7745 1.20554C85.3853 1.05484 84.9082 0.992054 84.3433 0.992054C83.7783 0.992054 83.2761 1.0674 82.8492 1.23065C82.4224 1.3939 82.0583 1.61995 81.7695 1.89622C81.4808 2.17249 81.2548 2.49899 81.1041 2.87573C80.9535 3.23991 80.8781 3.6292 80.8781 4.03105C80.8781 4.55848 80.9911 4.998 81.2171 5.34962C81.4431 5.70124 81.7444 5.99007 82.1085 6.22867C82.4726 6.46727 82.8995 6.68075 83.364 6.844C83.8285 7.00726 84.3182 7.17051 84.8078 7.33376C85.2974 7.49701 85.7871 7.67282 86.2516 7.87375C86.7161 8.07467 87.143 8.31327 87.5071 8.61466C87.8712 8.90349 88.1725 9.26766 88.3985 9.70719C88.6245 10.1467 88.7375 10.6741 88.7375 11.3146C88.7375 11.955 88.6245 12.5955 88.3985 13.1732C88.1725 13.7508 87.8461 14.2531 87.4192 14.6801C86.9923 15.1071 86.465 15.4461 85.8498 15.6973C85.2347 15.9484 84.519 16.074 83.7281 16.074C82.6986 16.074 81.8072 15.8856 81.0665 15.5215C80.3257 15.1573 79.6729 14.655 79.1079 14.0271L79.4218 13.5373C79.5097 13.4243 79.6101 13.3741 79.7357 13.3741C79.7984 13.3741 79.8863 13.4117 79.9867 13.5122C80.0872 13.6001 80.2127 13.7131 80.3634 13.8387C80.5141 13.9643 80.6898 14.1024 80.8907 14.2531C81.0916 14.4038 81.3427 14.542 81.6063 14.6675C81.8825 14.7931 82.1964 14.9061 82.5479 14.994C82.8995 15.0819 83.3012 15.1322 83.7532 15.1322C84.3684 15.1322 84.9208 15.0443 85.4104 14.8559C85.9001 14.6675 86.3144 14.4164 86.6408 14.0899C86.9798 13.7634 87.2309 13.3741 87.4066 12.9346C87.5824 12.4825 87.6703 12.0053 87.6703 11.503C87.6703 10.9504 87.5573 10.4983 87.3313 10.1342C87.1053 9.78254 86.804 9.48115 86.4399 9.24255C86.0758 9.00395 85.649 8.80303 85.1844 8.63977C84.7199 8.47652 84.2303 8.31327 83.7406 8.16258C83.251 8.01188 82.7614 7.83607 82.2968 7.64771C81.8323 7.45934 81.4054 7.20818 81.0414 6.90679C80.6773 6.6054 80.3759 6.24123 80.15 5.78915C79.924 5.34962 79.811 4.78452 79.811 4.1064C79.811 3.57897 79.9114 3.07665 80.1123 2.5869C80.3132 2.09714 80.6019 1.67018 80.9911 1.29344C81.3803 0.916707 81.8449 0.627877 82.4098 0.401836C82.9748 0.175795 83.6151 0.0627747 84.3433 0.0627747C85.1593 0.0627747 85.8875 0.188353 86.5278 0.452067C87.1681 0.715782 87.7582 1.10507 88.298 1.6325L88.0344 2.14737L88.0218 2.13482Z" fill="#292C3D"/>
<path d="M106.088 14.9438L106.063 15.8857H96.6846V0.226044H106.063V1.16788H97.8145V7.49703H104.669V8.41375H97.8145V14.9438H106.076H106.088Z" fill="#292C3D"/>
<path d="M126.025 0.226044V15.8857H125.498C125.397 15.8857 125.322 15.8731 125.259 15.8354C125.197 15.7978 125.134 15.7475 125.071 15.6596L114.902 2.07205C114.927 2.29809 114.939 2.49901 114.939 2.69994V15.8857H113.948V0.226044H114.512C114.613 0.226044 114.701 0.238602 114.751 0.263717C114.801 0.288833 114.864 0.351622 114.939 0.439527L125.084 14.002C125.059 13.7759 125.046 13.575 125.046 13.3741V0.226044H126.025Z" fill="#292C3D"/>
<path d="M142.673 2.13482C142.61 2.2604 142.51 2.32318 142.384 2.32318C142.284 2.32318 142.171 2.2604 142.008 2.12226C141.857 1.98412 141.656 1.83343 141.392 1.67018C141.129 1.50693 140.815 1.35623 140.426 1.20554C140.036 1.0674 139.559 0.992054 138.994 0.992054C138.429 0.992054 137.927 1.0674 137.5 1.23065C137.073 1.3939 136.709 1.61995 136.421 1.89622C136.132 2.17249 135.906 2.49899 135.755 2.87573C135.605 3.23991 135.529 3.6292 135.529 4.03105C135.529 4.55848 135.642 4.998 135.868 5.34962C136.094 5.70124 136.396 5.99007 136.76 6.22867C137.124 6.46727 137.551 6.68075 138.015 6.844C138.48 7.00726 138.969 7.17051 139.459 7.33376C139.949 7.49701 140.438 7.67282 140.903 7.87375C141.367 8.07467 141.794 8.31327 142.158 8.61466C142.522 8.90349 142.824 9.26766 143.05 9.70719C143.276 10.1467 143.389 10.6741 143.389 11.3146C143.389 11.955 143.276 12.5955 143.05 13.1732C142.824 13.7508 142.497 14.2531 142.07 14.6801C141.643 15.1071 141.116 15.4461 140.501 15.6973C139.886 15.9484 139.17 16.074 138.379 16.074C137.35 16.074 136.458 15.8856 135.718 15.5215C134.977 15.1573 134.324 14.655 133.759 14.0271L134.073 13.5373C134.161 13.4243 134.261 13.3741 134.387 13.3741C134.45 13.3741 134.537 13.4117 134.638 13.5122C134.738 13.6001 134.864 13.7131 135.015 13.8387C135.165 13.9643 135.341 14.1024 135.542 14.2531C135.743 14.4038 135.994 14.542 136.257 14.6675C136.534 14.7931 136.848 14.9061 137.199 14.994C137.551 15.0819 137.952 15.1322 138.404 15.1322C139.019 15.1322 139.572 15.0443 140.062 14.8559C140.551 14.6675 140.965 14.4164 141.292 14.0899C141.631 13.7634 141.882 13.3741 142.058 12.9346C142.234 12.495 142.321 12.0053 142.321 11.503C142.321 10.9504 142.208 10.4983 141.982 10.1342C141.756 9.78254 141.455 9.48115 141.091 9.24255C140.727 9.00395 140.3 8.80303 139.836 8.63977C139.371 8.47652 138.881 8.31327 138.392 8.16258C137.902 8.01188 137.412 7.83607 136.948 7.64771C136.483 7.45934 136.057 7.20818 135.692 6.90679C135.328 6.6054 135.027 6.24123 134.801 5.78915C134.575 5.34962 134.462 4.78452 134.462 4.1064C134.462 3.57897 134.563 3.07665 134.763 2.5869C134.964 2.09714 135.253 1.67018 135.642 1.29344C136.019 0.916707 136.496 0.627877 137.061 0.401836C137.626 0.175795 138.266 0.0627747 138.994 0.0627747C139.81 0.0627747 140.539 0.188353 141.179 0.452067C141.819 0.715782 142.409 1.10507 142.949 1.6325L142.686 2.14737L142.673 2.13482Z" fill="#292C3D"/>
<path d="M161.518 1.193H156.019V15.8857H154.876V1.193H149.34V0.226044H161.505V1.193H161.518Z" fill="#292C3D"/>
<path d="M177.977 14.9438L177.952 15.8857H168.573V0.226044H177.952V1.16788H169.703V7.49703H176.558V8.41375H169.703V14.9438H177.964H177.977Z" fill="#292C3D"/>
<path d="M186.979 15.8857H185.836V0.226044H186.979V15.8857Z" fill="#292C3D"/>
<path d="M208.108 0.226044V15.8857H207.581C207.481 15.8857 207.405 15.8731 207.343 15.8354C207.28 15.7978 207.217 15.7475 207.154 15.6596L196.985 2.07205C197.01 2.29809 197.023 2.49901 197.023 2.69994V15.8857H196.031V0.226044H196.596C196.696 0.226044 196.784 0.238602 196.834 0.263717C196.884 0.288833 196.947 0.351622 197.023 0.439527L207.167 14.002C207.142 13.7759 207.129 13.575 207.129 13.3741V0.226044H208.108Z" fill="#292C3D"/>
<path d="M51.8639 39.4065C52.0397 39.4065 52.1903 39.4693 52.3159 39.6074L53.5588 40.9511C52.8683 41.805 52.0271 42.458 51.0228 42.9101C50.0184 43.3622 48.8131 43.5882 47.407 43.5882C46.1515 43.5882 45.0216 43.3748 44.0172 42.9478C43.0128 42.5208 42.1591 41.9181 41.4434 41.152C40.7278 40.386 40.1879 39.4693 39.8113 38.4144C39.4347 37.3596 39.2463 36.1917 39.2463 34.9359C39.2463 33.6801 39.4472 32.4997 39.8615 31.4323C40.2633 30.3774 40.8408 29.4607 41.5815 28.6947C42.3223 27.9286 43.2011 27.3384 44.218 26.9114C45.2475 26.4845 46.3775 26.271 47.6204 26.271C48.8633 26.271 49.9556 26.4719 50.9098 26.8863C51.8639 27.2882 52.68 27.8282 53.3579 28.4812L52.3033 29.9504C52.2406 30.0383 52.1652 30.1262 52.0648 30.2016C51.9644 30.2769 51.8263 30.3021 51.6631 30.3021C51.5501 30.3021 51.4245 30.2644 51.299 30.2016C51.1734 30.1388 51.0353 30.0509 50.8846 29.9504C50.734 29.85 50.5582 29.7495 50.3699 29.6239C50.169 29.5109 49.943 29.3979 49.6919 29.2974C49.4283 29.197 49.1395 29.1216 48.8006 29.0463C48.4616 28.9835 48.0724 28.9458 47.6204 28.9458C46.8671 28.9458 46.164 29.084 45.5363 29.3477C44.9086 29.6239 44.3687 30.0132 43.9167 30.5155C43.4648 31.0304 43.1132 31.6457 42.8621 32.3867C42.611 33.1276 42.4855 33.9689 42.4855 34.9108C42.4855 35.8526 42.6236 36.7066 42.8872 37.46C43.1509 38.2009 43.5275 38.8288 43.9795 39.3311C44.444 39.8335 44.9839 40.2227 45.6116 40.499C46.2394 40.7627 46.9048 40.9009 47.633 40.9009C48.0598 40.9009 48.449 40.8758 48.8006 40.8255C49.1521 40.7753 49.466 40.6999 49.7673 40.5995C50.056 40.499 50.3322 40.3609 50.5959 40.2102C50.8595 40.0469 51.1232 39.846 51.3743 39.62C51.4496 39.5446 51.5375 39.4944 51.6254 39.4442C51.7133 39.4065 51.8012 39.3814 51.889 39.3814L51.8639 39.4065Z" fill="#292C3D"/>
<path d="M74.7012 26.4594V43.4124H71.5374V36.0033H63.5776V43.4124H60.4138V26.4594H63.5776V33.7555H71.5374V26.4594H74.7012Z" fill="#292C3D"/>
<path d="M86.3269 43.3999H83.1631V26.4468H86.3269V43.3999Z" fill="#292C3D"/>
<path d="M106.44 39.4065C106.615 39.4065 106.766 39.4693 106.892 39.6074L108.135 40.9511C107.444 41.805 106.603 42.458 105.598 42.9101C104.594 43.3622 103.389 43.5882 101.983 43.5882C100.727 43.5882 99.5972 43.3748 98.5928 42.9478C97.5885 42.5208 96.7347 41.9181 96.0191 41.152C95.3035 40.386 94.7636 39.4693 94.387 38.4144C94.0103 37.3596 93.822 36.1917 93.822 34.9359C93.822 33.6801 94.0229 32.4997 94.4372 31.4323C94.839 30.3774 95.4165 29.4607 96.1572 28.6947C96.8979 27.9286 97.7768 27.3384 98.7937 26.9114C99.8232 26.4845 100.953 26.271 102.196 26.271C103.439 26.271 104.531 26.4719 105.485 26.8863C106.44 27.2882 107.256 27.8282 107.934 28.4812L106.879 29.9504C106.816 30.0383 106.741 30.1262 106.64 30.2016C106.54 30.2769 106.402 30.3021 106.239 30.3021C106.126 30.3021 106 30.2644 105.875 30.2016C105.749 30.1388 105.611 30.0509 105.46 29.9504C105.31 29.85 105.134 29.7495 104.946 29.6239C104.745 29.5109 104.519 29.3979 104.268 29.2974C104.004 29.197 103.715 29.1216 103.376 29.0463C103.037 28.9835 102.648 28.9458 102.196 28.9458C101.443 28.9458 100.74 29.084 100.112 29.3477C99.4842 29.6239 98.9444 30.0132 98.4924 30.5155C98.0404 31.0304 97.6889 31.6457 97.4378 32.3867C97.1867 33.1276 97.0612 33.9689 97.0612 34.9108C97.0612 35.8526 97.1993 36.7066 97.4629 37.46C97.7266 38.2009 98.1032 38.8288 98.5552 39.3311C99.0197 39.8335 99.5596 40.2227 100.187 40.499C100.815 40.7627 101.48 40.9009 102.209 40.9009C102.636 40.9009 103.025 40.8758 103.376 40.8255C103.728 40.7753 104.042 40.6999 104.343 40.5995C104.632 40.499 104.908 40.3609 105.172 40.2102C105.435 40.0469 105.699 39.846 105.95 39.62C106.025 39.5446 106.113 39.4944 106.201 39.4442C106.289 39.4065 106.377 39.3814 106.465 39.3814L106.44 39.4065Z" fill="#292C3D"/>
<path d="M129.515 43.3999H127.08C126.804 43.3999 126.59 43.3371 126.414 43.199C126.239 43.0608 126.113 42.8976 126.025 42.6841L124.757 39.2307H117.739L116.471 42.6841C116.408 42.8599 116.283 43.0231 116.107 43.1738C115.931 43.3245 115.705 43.3999 115.441 43.3999H112.981L119.647 26.4468H122.861L129.515 43.3999ZM123.941 37.0079L121.882 31.3695C121.782 31.1183 121.681 30.8169 121.568 30.4779C121.455 30.1388 121.355 29.7621 121.242 29.3602C121.141 29.7621 121.028 30.1263 120.928 30.4779C120.815 30.8295 120.714 31.1309 120.614 31.382L118.568 36.9954H123.954L123.941 37.0079Z" fill="#292C3D"/>
<path d="M146.138 29.0463H141.028V43.3999H137.877V29.0463H132.767V26.4594H146.138V29.0463Z" fill="#292C3D"/>
<path d="M156.219 28.9584V33.655H162.145V36.0787H156.219V40.8758H163.74V43.3999H153.056V26.4468H163.74V28.9584H156.219Z" fill="#292C3D"/>
<path d="M181.141 40.8004V43.3999H171.21V26.4468H174.361V40.7879H181.128L181.141 40.8004Z" fill="#292C3D"/>
<path d="M198.002 40.8004V43.3999H188.071V26.4468H191.222V40.7879H197.989L198.002 40.8004Z" fill="#292C3D"/>
<path d="M208.109 43.3999H204.945V26.4468H208.109V43.3999Z" fill="#292C3D"/>
<path d="M189.917 49.8169C190.745 49.8169 191.373 49.9927 191.8 50.3569C192.227 50.7211 192.44 51.236 192.44 51.9141C192.44 52.228 192.377 52.5169 192.264 52.768C192.151 53.0317 191.976 53.2578 191.762 53.4461C191.549 53.6345 191.285 53.7852 190.971 53.8857C190.657 53.9861 190.306 54.0489 189.929 54.0489H188.611V56.9121H188.096V49.8169H189.929H189.917ZM189.917 53.6471C190.231 53.6471 190.507 53.6094 190.758 53.5215C191.009 53.4336 191.21 53.3206 191.386 53.1573C191.561 53.0066 191.687 52.8183 191.787 52.6173C191.875 52.4038 191.925 52.1778 191.925 51.9266C191.925 51.3867 191.762 50.9597 191.423 50.6709C191.084 50.382 190.595 50.2313 189.929 50.2313H188.611V53.6471H189.929H189.917Z" fill="#A3934E"/>
<path d="M197.751 56.4726V56.9121H193.871V49.8169H194.386V56.4726H197.751Z" fill="#A3934E"/>
<path d="M202.823 56.4726V56.9121H198.944V49.8169H199.458V56.4726H202.823Z" fill="#A3934E"/>
<path d="M208.711 55.7191C208.711 55.7191 208.774 55.7191 208.799 55.7568L209 55.9702C208.849 56.1335 208.699 56.2716 208.523 56.3972C208.347 56.5228 208.159 56.6233 207.958 56.7237C207.757 56.8242 207.531 56.887 207.28 56.9246C207.029 56.9623 206.765 57 206.464 57C205.974 57 205.522 56.9121 205.108 56.7363C204.694 56.5605 204.342 56.3219 204.053 56.0079C203.765 55.694 203.526 55.3047 203.376 54.8652C203.212 54.4131 203.137 53.9233 203.137 53.3708C203.137 52.8182 203.225 52.341 203.388 51.9015C203.551 51.462 203.79 51.0727 204.091 50.7587C204.392 50.4448 204.757 50.1936 205.171 50.0178C205.585 49.842 206.062 49.7541 206.564 49.7541C207.067 49.7541 207.481 49.8295 207.858 49.9802C208.234 50.1309 208.573 50.3443 208.875 50.6206L208.724 50.8467C208.724 50.8467 208.661 50.9094 208.598 50.9094C208.561 50.9094 208.498 50.8718 208.397 50.7964C208.31 50.7211 208.184 50.6457 208.021 50.5578C207.858 50.4699 207.657 50.382 207.418 50.3192C207.18 50.2439 206.891 50.2062 206.552 50.2062C206.125 50.2062 205.736 50.2815 205.372 50.4322C205.02 50.5829 204.706 50.7839 204.455 51.0601C204.204 51.3364 204.003 51.6629 203.853 52.0648C203.702 52.4666 203.639 52.9061 203.639 53.3959C203.639 53.8856 203.714 54.3503 203.853 54.7396C204.003 55.1289 204.192 55.4679 204.455 55.7442C204.706 56.0205 205.008 56.2214 205.359 56.3721C205.711 56.5228 206.075 56.5856 206.477 56.5856C206.728 56.5856 206.954 56.573 207.155 56.5354C207.355 56.4977 207.531 56.4474 207.707 56.3847C207.87 56.3219 208.033 56.234 208.171 56.1335C208.31 56.033 208.46 55.92 208.598 55.7944C208.611 55.7944 208.636 55.7693 208.649 55.7568C208.661 55.7568 208.686 55.7568 208.699 55.7568L208.711 55.7191Z" fill="#A3934E"/>
<path d="M26.5284 39.0423C26.4531 38.9669 26.3526 38.9167 26.2397 38.9167C26.1769 38.9167 26.1267 38.9293 26.0639 38.9544C26.0011 38.9795 25.9509 39.0172 25.8881 39.0674C25.411 39.5195 24.9214 39.9088 24.4192 40.2353C23.9296 40.5743 23.3897 40.8506 22.8122 41.0767C22.2347 41.3027 21.6069 41.4785 20.929 41.5915C20.251 41.7045 19.4726 41.7673 18.5938 41.7673C17.2127 41.7673 15.9322 41.5162 14.7394 41.0139C13.5467 40.5116 12.5172 39.7958 11.651 38.8539C10.7721 37.9121 10.0942 36.7693 9.59197 35.4131C9.08978 34.0568 8.83868 32.5122 8.83868 30.7918C8.83868 29.0714 9.08978 27.577 9.57942 26.2207C10.0691 24.8645 10.7596 23.7092 11.6384 22.7673C11.9899 22.3906 12.3791 22.0515 12.7935 21.7376C13.2078 21.4236 13.6597 21.1474 14.1368 20.8962C14.3502 20.7832 14.5637 20.6827 14.7897 20.5823C16.0075 20.08 17.3634 19.8288 18.8323 19.8288C19.9874 19.8288 20.9666 19.9544 21.7827 20.2055C22.5988 20.4567 23.2893 20.733 23.8417 21.0469C24.3941 21.3483 24.821 21.6246 25.1348 21.8883C25.4487 22.1394 25.6747 22.265 25.8128 22.265C26.0137 22.265 26.1518 22.2022 26.2397 22.0641L26.7795 21.2855C25.7249 20.3437 24.5448 19.6153 23.2642 19.1005C21.9836 18.5856 20.5021 18.3219 18.8323 18.3219C17.1625 18.3219 15.4927 18.6233 14.0364 19.226C13.7225 19.3516 13.4337 19.5023 13.1324 19.653L8.72569 14.115C8.51226 13.8262 8.26116 13.6001 7.98496 13.4243C9.05212 13.2987 10.0188 13.0476 10.8726 12.6834C11.7263 12.3192 12.4545 11.842 13.0571 11.2644C13.6597 10.6867 14.1243 10.0086 14.4507 9.24255C14.7771 8.47653 14.9278 7.62259 14.9278 6.69331C14.9278 4.59616 14.2247 3.00131 12.8311 1.90878C11.4501 0.853921 9.35343 0.313934 6.55371 0.313934H0.313965V24.7012H2.08419V13.6755H5.27312C5.51166 13.6755 5.71254 13.6755 5.8883 13.7131C6.05152 13.7383 6.20217 13.7759 6.31517 13.8262C6.44071 13.8764 6.54115 13.9517 6.64159 14.0396C6.74203 14.1276 6.82991 14.2406 6.93035 14.3661L11.8016 20.532C11.2743 20.9213 10.7721 21.3357 10.3202 21.8255C9.29066 22.918 8.48715 24.2366 7.90963 25.7687C7.33211 27.3007 7.04335 28.9835 7.04335 30.842C7.04335 32.7006 7.31955 34.4336 7.88452 35.9782C8.43693 37.5228 9.22788 38.8288 10.2323 39.9213C11.2492 41.0013 12.4545 41.8427 13.8606 42.4329C15.2667 43.0231 16.811 43.3245 18.5059 43.3245C19.5228 43.3245 20.4393 43.2366 21.2931 43.0734C22.1468 42.9101 22.9126 42.6715 23.6157 42.3701C24.3188 42.0687 24.9716 41.692 25.5617 41.265C26.1518 40.8381 26.7042 40.3483 27.2064 39.8083L26.5159 39.0674L26.5284 39.0423ZM6.31517 12.3569H2.08419V1.70785H6.55371C8.72569 1.70785 10.3829 2.12226 11.5129 2.96364C12.6428 3.80501 13.2078 5.08591 13.2078 6.81889C13.2078 7.67282 13.0571 8.43885 12.7432 9.11697C12.4294 9.7951 11.9774 10.3728 11.3873 10.8625C10.7972 11.3397 10.0691 11.7164 9.21533 11.9802C8.3616 12.2439 7.39488 12.3695 6.31517 12.3695V12.3569Z" fill="#A3934E" stroke="#A3934E" stroke-width="0.5" stroke-miterlimit="10"/>
</g>
<defs>
<clipPath id="clip0_126_1852">
<rect width="209" height="57" fill="white"/>
</clipPath>
</defs>
</svg>
